<mxfile host="app.diagrams.net" modified="2023-07-30T06:04:08.702Z" agent="Mozilla/5.0 (Windows NT 10.0; Win64; x64) AppleWebKit/537.36 (KHTML, like Gecko) Chrome/115.0.0.0 Safari/537.36" etag="FWayQsmKNwZEKrdZ-Qhi" version="21.6.6" type="device">
  <diagram id="Gi5_93j05Tq5kSE1P_lF" name="Page-2">
    <mxGraphModel dx="1428" dy="1298" grid="1" gridSize="10" guides="1" tooltips="1" connect="1" arrows="1" fold="1" page="1" pageScale="1" pageWidth="850" pageHeight="1100" math="0" shadow="0">
      <root>
        <mxCell id="0" />
        <mxCell id="1" parent="0" />
        <mxCell id="7F6fqmXWAmK54oai2_qa-3" value="Control remoto" style="shape=umlLifeline;perimeter=lifelinePerimeter;whiteSpace=wrap;html=1;container=1;collapsible=0;recursiveResize=0;outlineConnect=0;rounded=1;shadow=0;comic=0;labelBackgroundColor=none;strokeWidth=1;fontFamily=Helvetica;fontSize=11;align=center;" parent="1" vertex="1">
          <mxGeometry x="240" y="110" width="120" height="700" as="geometry" />
        </mxCell>
        <mxCell id="7F6fqmXWAmK54oai2_qa-4" value="" style="rounded=0;whiteSpace=wrap;html=1;fontFamily=Helvetica;fontSize=11;labelBackgroundColor=none;" parent="7F6fqmXWAmK54oai2_qa-3" vertex="1">
          <mxGeometry x="55" y="120" width="10" height="60" as="geometry" />
        </mxCell>
        <mxCell id="7F6fqmXWAmK54oai2_qa-5" value="Unidad lógica" style="shape=umlLifeline;perimeter=lifelinePerimeter;whiteSpace=wrap;html=1;container=1;collapsible=0;recursiveResize=0;outlineConnect=0;rounded=1;shadow=0;comic=0;labelBackgroundColor=none;strokeWidth=1;fontFamily=Helvetica;fontSize=11;align=center;" parent="1" vertex="1">
          <mxGeometry x="400" y="110" width="120" height="700" as="geometry" />
        </mxCell>
        <mxCell id="7F6fqmXWAmK54oai2_qa-6" value="" style="rounded=0;whiteSpace=wrap;html=1;fontFamily=Helvetica;fontSize=11;labelBackgroundColor=none;" parent="7F6fqmXWAmK54oai2_qa-5" vertex="1">
          <mxGeometry x="55" y="180" width="10" height="160" as="geometry" />
        </mxCell>
        <mxCell id="7F6fqmXWAmK54oai2_qa-7" value="" style="endArrow=classic;html=1;rounded=0;exitX=1.03;exitY=0.151;exitDx=0;exitDy=0;edgeStyle=orthogonalEdgeStyle;curved=1;entryX=1;entryY=0;entryDx=0;entryDy=0;exitPerimeter=0;fontFamily=Helvetica;fontSize=11;labelBackgroundColor=none;" parent="7F6fqmXWAmK54oai2_qa-5" target="7F6fqmXWAmK54oai2_qa-9" edge="1">
          <mxGeometry width="50" height="50" relative="1" as="geometry">
            <mxPoint x="65.12999999999995" y="189.99999999999997" as="sourcePoint" />
            <mxPoint x="64.99999999999996" y="226.17999999999998" as="targetPoint" />
            <Array as="points">
              <mxPoint x="100" y="190" />
              <mxPoint x="100" y="220" />
            </Array>
          </mxGeometry>
        </mxCell>
        <mxCell id="7F6fqmXWAmK54oai2_qa-8" value="validar &lt;br style=&quot;font-size: 11px;&quot;&gt;identificador&lt;br style=&quot;font-size: 11px;&quot;&gt;de control&lt;br style=&quot;font-size: 11px;&quot;&gt;remoto" style="edgeLabel;html=1;align=center;verticalAlign=middle;resizable=0;points=[];fontFamily=Helvetica;fontSize=11;labelBackgroundColor=none;" parent="7F6fqmXWAmK54oai2_qa-7" vertex="1" connectable="0">
          <mxGeometry x="-0.1339" y="-1" relative="1" as="geometry">
            <mxPoint x="34" y="9" as="offset" />
          </mxGeometry>
        </mxCell>
        <mxCell id="7F6fqmXWAmK54oai2_qa-9" value="" style="rounded=0;whiteSpace=wrap;html=1;fontFamily=Helvetica;fontSize=11;labelBackgroundColor=none;" parent="7F6fqmXWAmK54oai2_qa-5" vertex="1">
          <mxGeometry x="60" y="220" width="10" height="40" as="geometry" />
        </mxCell>
        <mxCell id="7F6fqmXWAmK54oai2_qa-11" value="[identificador inválido]" style="text;html=1;strokeColor=none;fillColor=none;align=center;verticalAlign=middle;whiteSpace=wrap;rounded=0;fontStyle=1;fontFamily=Helvetica;fontSize=11;labelBackgroundColor=none;" parent="7F6fqmXWAmK54oai2_qa-5" vertex="1">
          <mxGeometry x="74.5" y="265" width="131" height="20" as="geometry" />
        </mxCell>
        <mxCell id="7F6fqmXWAmK54oai2_qa-12" value="[identificador válido]" style="text;html=1;strokeColor=none;fillColor=none;align=center;verticalAlign=middle;whiteSpace=wrap;rounded=0;fontStyle=1;fontFamily=Helvetica;fontSize=11;labelBackgroundColor=none;" parent="7F6fqmXWAmK54oai2_qa-5" vertex="1">
          <mxGeometry x="74.5" y="356" width="128.12" height="20" as="geometry" />
        </mxCell>
        <mxCell id="7F6fqmXWAmK54oai2_qa-13" value="" style="rounded=0;whiteSpace=wrap;html=1;fontFamily=Helvetica;fontSize=11;labelBackgroundColor=none;" parent="7F6fqmXWAmK54oai2_qa-5" vertex="1">
          <mxGeometry x="60" y="292" width="10" height="40" as="geometry" />
        </mxCell>
        <mxCell id="7F6fqmXWAmK54oai2_qa-14" value="" style="endArrow=classic;html=1;rounded=0;edgeStyle=orthogonalEdgeStyle;curved=1;entryX=1.032;entryY=0.375;entryDx=0;entryDy=0;entryPerimeter=0;exitX=1.2;exitY=0.643;exitDx=0;exitDy=0;exitPerimeter=0;fontFamily=Helvetica;fontSize=11;labelBackgroundColor=none;" parent="7F6fqmXWAmK54oai2_qa-5" edge="1">
          <mxGeometry width="50" height="50" relative="1" as="geometry">
            <mxPoint x="65" y="289.88" as="sourcePoint" />
            <mxPoint x="68.32000000000005" y="314" as="targetPoint" />
            <Array as="points">
              <mxPoint x="65" y="284" />
              <mxPoint x="98" y="284" />
              <mxPoint x="98" y="314" />
            </Array>
          </mxGeometry>
        </mxCell>
        <mxCell id="7F6fqmXWAmK54oai2_qa-15" value="rechazar &lt;br style=&quot;font-size: 11px;&quot;&gt;comando" style="edgeLabel;html=1;align=center;verticalAlign=middle;resizable=0;points=[];fontFamily=Helvetica;fontSize=11;labelBackgroundColor=none;" parent="7F6fqmXWAmK54oai2_qa-14" vertex="1" connectable="0">
          <mxGeometry x="-0.1339" y="-1" relative="1" as="geometry">
            <mxPoint x="34" y="9" as="offset" />
          </mxGeometry>
        </mxCell>
        <mxCell id="7F6fqmXWAmK54oai2_qa-17" value="" style="endArrow=classic;html=1;rounded=0;edgeStyle=orthogonalEdgeStyle;curved=1;exitX=1.05;exitY=0.204;exitDx=0;exitDy=0;exitPerimeter=0;fontFamily=Helvetica;fontSize=11;labelBackgroundColor=none;" parent="7F6fqmXWAmK54oai2_qa-5" source="8KNm3-20Z3KvcUUBy0Qh-4" edge="1">
          <mxGeometry width="50" height="50" relative="1" as="geometry">
            <mxPoint x="80" y="380" as="sourcePoint" />
            <mxPoint x="70" y="410" as="targetPoint" />
            <Array as="points">
              <mxPoint x="66" y="381" />
              <mxPoint x="100" y="381" />
              <mxPoint x="100" y="410" />
            </Array>
          </mxGeometry>
        </mxCell>
        <mxCell id="7F6fqmXWAmK54oai2_qa-18" value="procesar comando&lt;br style=&quot;font-size: 11px;&quot;&gt;y actualizar periodo" style="edgeLabel;html=1;align=center;verticalAlign=middle;resizable=0;points=[];fontFamily=Helvetica;fontSize=11;labelBackgroundColor=none;" parent="7F6fqmXWAmK54oai2_qa-17" vertex="1" connectable="0">
          <mxGeometry x="-0.1339" y="-1" relative="1" as="geometry">
            <mxPoint x="57" y="11" as="offset" />
          </mxGeometry>
        </mxCell>
        <mxCell id="8KNm3-20Z3KvcUUBy0Qh-4" value="" style="rounded=0;whiteSpace=wrap;html=1;fontFamily=Helvetica;fontSize=11;labelBackgroundColor=none;" parent="7F6fqmXWAmK54oai2_qa-5" vertex="1">
          <mxGeometry x="55" y="360" width="10" height="130" as="geometry" />
        </mxCell>
        <mxCell id="7F6fqmXWAmK54oai2_qa-16" value="" style="rounded=0;whiteSpace=wrap;html=1;fontFamily=Helvetica;fontSize=11;labelBackgroundColor=none;" parent="7F6fqmXWAmK54oai2_qa-5" vertex="1">
          <mxGeometry x="60" y="400" width="10" height="40" as="geometry" />
        </mxCell>
        <mxCell id="7F6fqmXWAmK54oai2_qa-19" value="Microcontroladores de displays" style="shape=umlLifeline;perimeter=lifelinePerimeter;whiteSpace=wrap;html=1;container=1;collapsible=0;recursiveResize=0;outlineConnect=0;rounded=1;shadow=0;comic=0;labelBackgroundColor=none;strokeWidth=1;fontFamily=Helvetica;fontSize=11;align=center;size=40;" parent="1" vertex="1">
          <mxGeometry x="570" y="110" width="120" height="700" as="geometry" />
        </mxCell>
        <mxCell id="7F6fqmXWAmK54oai2_qa-20" value="LEDs / matrices LED / buzzer" style="shape=umlLifeline;perimeter=lifelinePerimeter;whiteSpace=wrap;html=1;container=1;collapsible=0;recursiveResize=0;outlineConnect=0;rounded=1;shadow=0;comic=0;labelBackgroundColor=none;strokeWidth=1;fontFamily=Helvetica;fontSize=11;align=center;" parent="1" vertex="1">
          <mxGeometry x="740" y="110" width="130" height="700" as="geometry" />
        </mxCell>
        <mxCell id="7F6fqmXWAmK54oai2_qa-21" value="Usuario" style="shape=umlLifeline;perimeter=lifelinePerimeter;whiteSpace=wrap;html=1;container=1;collapsible=0;recursiveResize=0;outlineConnect=0;rounded=1;shadow=0;comic=0;labelBackgroundColor=none;strokeWidth=1;fontFamily=Helvetica;fontSize=11;align=center;" parent="1" vertex="1">
          <mxGeometry x="70" y="110" width="120" height="700" as="geometry" />
        </mxCell>
        <mxCell id="7F6fqmXWAmK54oai2_qa-22" value="" style="rounded=0;whiteSpace=wrap;html=1;fontFamily=Helvetica;fontSize=11;labelBackgroundColor=none;" parent="7F6fqmXWAmK54oai2_qa-21" vertex="1">
          <mxGeometry x="55" y="100" width="10" height="540" as="geometry" />
        </mxCell>
        <mxCell id="7F6fqmXWAmK54oai2_qa-23" value="" style="endArrow=classic;html=1;rounded=0;exitX=1.032;exitY=0.038;exitDx=0;exitDy=0;exitPerimeter=0;entryX=0;entryY=0;entryDx=0;entryDy=0;fontFamily=Helvetica;fontSize=11;labelBackgroundColor=none;" parent="1" source="7F6fqmXWAmK54oai2_qa-22" target="7F6fqmXWAmK54oai2_qa-4" edge="1">
          <mxGeometry width="50" height="50" relative="1" as="geometry">
            <mxPoint x="300" y="230" as="sourcePoint" />
            <mxPoint x="350" y="180" as="targetPoint" />
          </mxGeometry>
        </mxCell>
        <mxCell id="7F6fqmXWAmK54oai2_qa-24" value="Presionar botón de &lt;br&gt;sincronizar&lt;br&gt;control remoto" style="edgeLabel;html=1;align=center;verticalAlign=middle;resizable=0;points=[];fontFamily=Helvetica;fontSize=11;labelBackgroundColor=none;" parent="7F6fqmXWAmK54oai2_qa-23" vertex="1" connectable="0">
          <mxGeometry x="-0.1339" y="-1" relative="1" as="geometry">
            <mxPoint x="6" y="-23" as="offset" />
          </mxGeometry>
        </mxCell>
        <mxCell id="7F6fqmXWAmK54oai2_qa-25" value="" style="endArrow=classic;html=1;rounded=0;exitX=1;exitY=1;exitDx=0;exitDy=0;entryX=0;entryY=0;entryDx=0;entryDy=0;fontFamily=Helvetica;fontSize=11;labelBackgroundColor=none;" parent="1" source="7F6fqmXWAmK54oai2_qa-4" target="7F6fqmXWAmK54oai2_qa-6" edge="1">
          <mxGeometry width="50" height="50" relative="1" as="geometry">
            <mxPoint x="320" y="290" as="sourcePoint" />
            <mxPoint x="450" y="290" as="targetPoint" />
          </mxGeometry>
        </mxCell>
        <mxCell id="7F6fqmXWAmK54oai2_qa-26" value="enviar comando" style="edgeLabel;html=1;align=center;verticalAlign=middle;resizable=0;points=[];fontFamily=Helvetica;fontSize=11;labelBackgroundColor=none;" parent="7F6fqmXWAmK54oai2_qa-25" vertex="1" connectable="0">
          <mxGeometry x="-0.1339" y="-1" relative="1" as="geometry">
            <mxPoint x="6" y="-11" as="offset" />
          </mxGeometry>
        </mxCell>
        <mxCell id="7F6fqmXWAmK54oai2_qa-27" value="alt" style="shape=umlFrame;whiteSpace=wrap;html=1;pointerEvents=0;width=40;height=20;fontFamily=Helvetica;fontSize=11;labelBackgroundColor=none;" parent="1" vertex="1">
          <mxGeometry x="70" y="375" width="820" height="405" as="geometry" />
        </mxCell>
        <mxCell id="7F6fqmXWAmK54oai2_qa-28" style="edgeStyle=orthogonalEdgeStyle;rounded=0;orthogonalLoop=1;jettySize=auto;html=1;exitX=1;exitY=1;exitDx=0;exitDy=0;entryX=0;entryY=0;entryDx=0;entryDy=0;fontFamily=Helvetica;fontSize=11;labelBackgroundColor=none;" parent="1" source="7F6fqmXWAmK54oai2_qa-30" target="7F6fqmXWAmK54oai2_qa-38" edge="1">
          <mxGeometry relative="1" as="geometry">
            <Array as="points">
              <mxPoint x="680" y="690" />
              <mxPoint x="680" y="690" />
            </Array>
          </mxGeometry>
        </mxCell>
        <mxCell id="7F6fqmXWAmK54oai2_qa-29" value="señales electrónicas &lt;br style=&quot;font-size: 11px;&quot;&gt;y SPI" style="edgeLabel;html=1;align=center;verticalAlign=middle;resizable=0;points=[];fontFamily=Helvetica;fontSize=11;labelBackgroundColor=none;" parent="7F6fqmXWAmK54oai2_qa-28" vertex="1" connectable="0">
          <mxGeometry x="-0.1849" y="-2" relative="1" as="geometry">
            <mxPoint x="11" y="-18" as="offset" />
          </mxGeometry>
        </mxCell>
        <mxCell id="7F6fqmXWAmK54oai2_qa-30" value="" style="rounded=0;whiteSpace=wrap;html=1;fontFamily=Helvetica;fontSize=11;labelBackgroundColor=none;" parent="1" vertex="1">
          <mxGeometry x="625" y="590" width="10" height="100" as="geometry" />
        </mxCell>
        <mxCell id="7F6fqmXWAmK54oai2_qa-31" style="edgeStyle=orthogonalEdgeStyle;rounded=0;orthogonalLoop=1;jettySize=auto;html=1;entryX=0;entryY=0;entryDx=0;entryDy=0;exitX=0.959;exitY=0.912;exitDx=0;exitDy=0;exitPerimeter=0;fontFamily=Helvetica;fontSize=11;labelBackgroundColor=none;" parent="1" source="8KNm3-20Z3KvcUUBy0Qh-4" target="7F6fqmXWAmK54oai2_qa-30" edge="1">
          <mxGeometry relative="1" as="geometry">
            <Array as="points">
              <mxPoint x="465" y="590" />
            </Array>
            <mxPoint x="480" y="590" as="sourcePoint" />
          </mxGeometry>
        </mxCell>
        <mxCell id="7F6fqmXWAmK54oai2_qa-32" value="&lt;div&gt;Sincronizar máquina&lt;/div&gt;&lt;div&gt;a control remoto&lt;/div&gt;" style="edgeLabel;html=1;align=center;verticalAlign=middle;resizable=0;points=[];fontFamily=Helvetica;fontSize=11;labelBackgroundColor=none;" parent="7F6fqmXWAmK54oai2_qa-31" vertex="1" connectable="0">
          <mxGeometry x="-0.0984" relative="1" as="geometry">
            <mxPoint x="6" y="-17" as="offset" />
          </mxGeometry>
        </mxCell>
        <mxCell id="7F6fqmXWAmK54oai2_qa-36" style="edgeStyle=orthogonalEdgeStyle;rounded=0;orthogonalLoop=1;jettySize=auto;html=1;exitX=0;exitY=1;exitDx=0;exitDy=0;entryX=1.028;entryY=0.963;entryDx=0;entryDy=0;entryPerimeter=0;dashed=1;dashPattern=8 8;fontFamily=Helvetica;fontSize=11;labelBackgroundColor=none;" parent="1" source="7F6fqmXWAmK54oai2_qa-38" target="7F6fqmXWAmK54oai2_qa-22" edge="1">
          <mxGeometry relative="1" as="geometry">
            <Array as="points">
              <mxPoint x="620" y="730" />
              <mxPoint x="620" y="730" />
            </Array>
          </mxGeometry>
        </mxCell>
        <mxCell id="7F6fqmXWAmK54oai2_qa-37" value="encender LED y emitir &lt;br style=&quot;font-size: 11px;&quot;&gt;alertas sonoras" style="edgeLabel;html=1;align=center;verticalAlign=middle;resizable=0;points=[];fontFamily=Helvetica;fontSize=11;labelBackgroundColor=none;" parent="7F6fqmXWAmK54oai2_qa-36" vertex="1" connectable="0">
          <mxGeometry x="-0.2968" relative="1" as="geometry">
            <mxPoint x="-26" y="17" as="offset" />
          </mxGeometry>
        </mxCell>
        <mxCell id="7F6fqmXWAmK54oai2_qa-38" value="" style="rounded=0;whiteSpace=wrap;html=1;fontFamily=Helvetica;fontSize=11;labelBackgroundColor=none;" parent="1" vertex="1">
          <mxGeometry x="800" y="690" width="10" height="40" as="geometry" />
        </mxCell>
        <mxCell id="7F6fqmXWAmK54oai2_qa-10" value="" style="endArrow=none;dashed=1;html=1;strokeWidth=2;rounded=0;entryX=1;entryY=0.223;entryDx=0;entryDy=0;entryPerimeter=0;fontFamily=Helvetica;fontSize=11;labelBackgroundColor=none;" parent="1" edge="1">
          <mxGeometry width="50" height="50" relative="1" as="geometry">
            <mxPoint x="70" y="460" as="sourcePoint" />
            <mxPoint x="890" y="460.31500000000005" as="targetPoint" />
          </mxGeometry>
        </mxCell>
      </root>
    </mxGraphModel>
  </diagram>
</mxfile>
